<mxfile host="www.draw.io" modified="2019-10-20T16:15:06.583Z" agent="Mozilla/5.0 (Windows NT 6.1; Win64; x64; rv:69.0) Gecko/20100101 Firefox/69.0" etag="g6iuE6ieQmhPN41NW66n" version="12.1.3" type="github" pages="1">
  <diagram id="SGxn4rbbf4xmvFjjaIz-" name="Page-1">
    <mxGraphModel dx="782" dy="433" grid="1" gridSize="6" guides="1" tooltips="1" connect="1" arrows="1" fold="1" page="1" pageScale="1" pageWidth="1100" pageHeight="850" math="0" shadow="0">
      <root>
        <mxCell id="0"/>
        <mxCell id="1" parent="0"/>
        <mxCell id="rbb1ejAeYVXkkltf7h_X-1" value="" style="rounded=0;whiteSpace=wrap;html=1;" vertex="1" parent="1">
          <mxGeometry x="168" y="96" width="384" height="192" as="geometry"/>
        </mxCell>
        <mxCell id="rbb1ejAeYVXkkltf7h_X-2" value="" style="rounded=0;whiteSpace=wrap;html=1;" vertex="1" parent="1">
          <mxGeometry x="168" y="360" width="384" height="192" as="geometry"/>
        </mxCell>
        <mxCell id="rbb1ejAeYVXkkltf7h_X-3" value="" style="line;strokeWidth=1;direction=south;html=1;" vertex="1" parent="1">
          <mxGeometry x="402" y="96" width="10" height="192" as="geometry"/>
        </mxCell>
      </root>
    </mxGraphModel>
  </diagram>
</mxfile>
